<svg version="1.1" id="Capa_1" xmlns="http://www.w3.org/2000/svg" xmlns:xlink="http://www.w3.org/1999/xlink" x="0px" y="0px"
     width="45.165px" height="45.165px" viewBox="0 0 45.165 45.165" style="enable-background:new 0 0 45.165 45.165;"
     xml:space="preserve">
<g>
	<g>
		<path d="M0.711,8.106C0.248,8.528,0,9.126,0,9.752v24.13c0,1.152,0.866,2.114,2.012,2.219l16.7,1.529
			c0.724,0.065,1.441-0.175,1.979-0.665c0.536-0.49,0.842-1.183,0.842-1.909V11.642c0-1.336-1.019-2.452-2.349-2.574L2.409,7.533
			C1.786,7.476,1.172,7.684,0.711,8.106z M3.249,16.099c0.075-0.814,0.789-1.422,1.609-1.338l12.048,1.109
			c0.814,0.075,1.412,0.795,1.339,1.609c-0.072,0.767-0.718,1.344-1.474,1.344c-0.045,0-0.091-0.002-0.137-0.006l-12.048-1.11
			C3.774,17.632,3.175,16.912,3.249,16.099z M3.249,22.016c0.075-0.813,0.789-1.414,1.609-1.337l12.048,1.109
			c0.814,0.076,1.412,0.796,1.339,1.61c-0.072,0.768-0.718,1.345-1.474,1.345c-0.045,0-0.091-0.002-0.137-0.008L4.586,23.625
			C3.774,23.55,3.175,22.832,3.249,22.016z M3.249,27.935c0.075-0.812,0.789-1.416,1.609-1.337l12.048,1.109
			c0.814,0.076,1.412,0.795,1.339,1.608c-0.072,0.769-0.718,1.346-1.474,1.346c-0.045,0-0.091-0.002-0.137-0.008L4.586,29.544
			C3.774,29.469,3.175,28.75,3.249,27.935z"/>
        <path d="M41.008,15.34c-0.92,0-1.8-0.34-2.48-0.958c-0.776-0.701-1.217-1.704-1.217-2.75v-3.72L25.98,8.948
			c-1.33,0.122-2.349,1.238-2.349,2.574v23.415c0,0.728,0.306,1.419,0.843,1.909c0.536,0.49,1.254,0.731,1.979,0.665l16.699-1.529
			c1.146-0.104,2.013-1.066,2.013-2.219V14.94l-3.802,0.381C41.238,15.334,41.13,15.34,41.008,15.34z M40.57,29.544l-12.047,1.108
			c-0.047,0.005-0.092,0.008-0.138,0.008c-0.756,0-1.399-0.577-1.473-1.346c-0.073-0.813,0.524-1.532,1.338-1.608l12.048-1.109
			c0.821-0.078,1.534,0.524,1.609,1.337C41.984,28.75,41.385,29.469,40.57,29.544z M41.908,22.016
			c0.076,0.814-0.523,1.534-1.338,1.609l-12.047,1.108c-0.047,0.004-0.092,0.008-0.138,0.008c-0.756,0-1.399-0.577-1.473-1.345
			c-0.073-0.813,0.524-1.534,1.338-1.61l12.048-1.109C41.121,20.602,41.834,21.203,41.908,22.016z"/>
        <path d="M40.288,7.657v3.976c0,0.211,0.075,0.414,0.231,0.555c0.139,0.125,0.31,0.194,0.494,0.194l0.059-0.004l4.092-0.411v-0.008
			L40.288,7.657z"/>
	</g>
</g>
    <g>
</g>
    <g>
</g>
    <g>
</g>
    <g>
</g>
    <g>
</g>
    <g>
</g>
    <g>
</g>
    <g>
</g>
    <g>
</g>
    <g>
</g>
    <g>
</g>
    <g>
</g>
    <g>
</g>
    <g>
</g>
    <g>
</g>
</svg>
